<svg xmlns="http://www.w3.org/2000/svg" width="70.069" height="63.976" viewBox="0 0 70.069 63.976">
    <path id="Icon_material-add-a-photo" d="M9.139,10.639V1.5h6.093v9.139h9.139v6.093H15.232v9.139H9.139V16.732H0V10.639Zm9.139,18.279V19.779h9.139V10.639H48.744l5.575,6.093h9.657a6.111,6.111,0,0,1,6.093,6.093V59.383a6.111,6.111,0,0,1-6.093,6.093H15.232a6.111,6.111,0,0,1-6.093-6.093V28.918ZM39.6,56.337A15.232,15.232,0,1,0,24.372,41.1,15.238,15.238,0,0,0,39.6,56.337ZM29.856,41.1A9.749,9.749,0,1,0,39.6,31.356,9.738,9.738,0,0,0,29.856,41.1Z" transform="translate(0 -1.5)"/>
</svg>
