<svg xmlns="http://www.w3.org/2000/svg" width="40" height="40" viewBox="0 0 40 40">
    <g id="Groupe_75" transform="translate(-15491 -3524)">
        <circle id="Ellipse_8" cx="20" cy="20" r="20" transform="translate(15491 3524)" fill="#38b6ff"/>
        <path id="Icon_awesome-pencil-alt" d="M19.826,5.66,17.99,7.5a.478.478,0,0,1-.677,0l-4.42-4.42a.478.478,0,0,1,0-.677L14.729.564a1.915,1.915,0,0,1,2.7,0l2.393,2.393A1.908,1.908,0,0,1,19.826,5.66ZM11.317,3.976.861,14.432.017,19.27a.957.957,0,0,0,1.107,1.107l4.838-.848L16.417,9.073a.478.478,0,0,0,0-.677L12,3.976a.483.483,0,0,0-.681,0Zm-6.375,9.56a.555.555,0,0,1,0-.788l6.132-6.132a.557.557,0,0,1,.788.788L5.73,13.536a.555.555,0,0,1-.788,0ZM3.5,16.885H5.416V18.33l-2.568.45L1.609,17.542l.45-2.568H3.5Z" transform="translate(15500.806 3533.802)" fill="#fff"/>
    </g>
</svg>
